<?xml version="1.0" encoding="UTF-8"?>
<svg id="Layer_1" xmlns="http://www.w3.org/2000/svg" version="1.1" viewBox="0 0 288.9 62.7">
  <!-- Generator: Adobe Illustrator 30.1.0, SVG Export Plug-In . SVG Version: 2.1.1 Build 136)  -->
  <defs>
    <style>
      .st0, .st1 {
        fill: #231f20;
      }

      .st1 {
        font-family: HelveticaNeue-UltraLigExtObl, 'Helvetica Neue';
        font-size: 61.5px;
        font-style: oblique;
      }
    </style>
  </defs>
  <text class="st1" transform="translate(6.9 -60.6)"><tspan x="0" y="0">AKAIIONA</tspan></text>
  <g>
    <path class="st0" d="M129.1,50.8l-10.2-41.3h-1.6l-28.7,42.7-19.5-24.4,27.9-18.3h-2.2l-40.6,26.7,5.7-26.7h-1.2l-8.8,41.4-10.2-41.4h-1.6L8.7,53.5h1.6l9.7-14.5h25.6l3.5,14.5h1.6,0s0,0,0,0l3.3-15.6,13.9-9.2,19.8,24.7h.2,0s1.6,0,1.6,0h0s.1,0,.1,0h0c0-.1,9.6-14.5,9.6-14.5h25.6l3.5,14.5h1.6l9.3-43.9h-1.2l-8.8,41.3ZM20.8,37.7l18-26.9,6.5,26.9h-24.5ZM99.9,37.7l18-26.9,6.5,26.9h-24.5Z"/>
    <polygon class="st0" points="149.5 9.6 140.1 53.5 141.4 53.5 150.7 9.6 149.5 9.6"/>
    <path class="st0" d="M178.8,8.6c-12.5,0-24.5,8.4-27.6,22.9-3.1,14.5,5.3,22.9,17.9,22.9s24.5-8.4,27.6-22.9c3.1-14.5-5.3-22.9-17.9-22.9ZM195.4,31.5c-3,14.1-14.7,21.7-26.1,21.7s-19.9-7.6-16.9-21.7c3-14.1,14.7-21.7,26.1-21.7s19.9,7.6,16.9,21.7Z"/>
    <path class="st0" d="M264.3,9.6h-1.6l-27.3,40.6,8.6-40.6h-1.2l-9,42.3h-.1l-25.7-42.3h-1.6l-9.3,43.9h1.2l9-42.3h.1l25.7,42.3h1.7l9.7-14.5h25.6l3.5,14.5h1.6l-10.8-43.9ZM245.3,37.7l18-26.9,6.5,26.9h-24.5Z"/>
  </g>
</svg>